<?xml version="1.0" standalone="no"?>
<!DOCTYPE svg PUBLIC "-//W3C//DTD SVG 20010904//EN"
 "http://www.w3.org/TR/2001/REC-SVG-20010904/DTD/svg10.dtd">
<svg version="1.0" xmlns="http://www.w3.org/2000/svg"
 width="1201.000000pt" height="302.000000pt" viewBox="0 0 1201.000000 302.000000"
 preserveAspectRatio="xMidYMid meet">

<g transform="translate(0.000000,302.000000) scale(0.100000,-0.100000)"
fill="#000000" stroke="none">
<path d="M5830 2971 l0 -50 -52 -3 -53 -3 -3 -67 -3 -68 -30 0 c-35 0 -95 -24
-122 -48 -30 -26 -57 -88 -57 -127 l0 -35 -290 0 -290 0 0 -717 c1 -762 2
-793 50 -933 95 -282 336 -559 659 -760 89 -55 274 -150 293 -150 7 0 60 24
118 53 404 205 710 515 823 834 56 156 57 174 57 954 l0 719 -290 0 -290 0 0
34 c0 94 -83 175 -177 176 l-33 0 0 70 0 70 -55 0 -55 0 0 50 0 50 -100 0
-100 0 0 -49z m140 -71 l0 -50 50 0 50 0 0 -35 0 -35 -50 0 -50 0 0 -35 0 -35
126 0 c125 0 126 0 155 -29 40 -40 41 -105 3 -150 l-26 -31 321 0 321 0 0
-622 c0 -355 -5 -670 -10 -733 -21 -216 -105 -400 -275 -597 -122 -143 -349
-315 -556 -422 l-95 -50 -65 30 c-139 66 -325 190 -465 313 -142 123 -285 319
-343 469 -61 159 -61 164 -61 922 l0 690 316 0 315 0 -25 33 c-38 49 -36 106
5 146 l31 31 124 0 124 0 0 35 0 35 -50 0 -50 0 0 35 0 35 50 0 50 0 0 50 0
50 40 0 40 0 0 -50z"/>
<path d="M5668 2629 c-28 -16 -22 -31 30 -82 l48 -47 72 0 72 0 0 70 0 70
-102 0 c-57 0 -111 -5 -120 -11z"/>
<path d="M5970 2570 l0 -70 73 0 73 0 47 48 c26 26 47 53 47 59 0 24 -40 33
-139 33 l-101 0 0 -70z"/>
<path d="M5070 1788 c1 -459 4 -662 13 -708 l12 -65 198 -3 197 -2 25 24 c32
32 33 75 3 103 -13 11 -50 28 -83 38 -171 49 -252 143 -243 283 6 107 56 184
151 234 64 34 184 32 252 -4 59 -31 126 -94 167 -157 15 -25 28 -39 28 -32 0
7 -21 77 -46 155 -60 182 -66 257 -32 343 23 56 203 323 218 323 15 0 195
-267 218 -323 35 -87 28 -162 -32 -343 -25 -77 -46 -147 -46 -155 0 -7 15 9
34 36 41 62 110 126 168 157 34 18 59 23 123 23 70 0 87 -4 134 -30 98 -54
147 -148 139 -269 -3 -52 -10 -74 -34 -108 -39 -57 -109 -102 -197 -129 -111
-34 -147 -90 -92 -145 l25 -24 197 2 197 3 10 30 c6 19 11 282 13 708 l4 677
-861 0 -860 0 0 -642z"/>
<path d="M5868 2113 c-122 -171 -127 -208 -55 -428 48 -145 62 -227 72 -405 3
-58 8 -142 11 -187 l6 -83 29 0 c21 0 29 5 29 18 1 73 22 382 31 442 6 41 31
138 56 215 55 167 61 234 24 305 -27 53 -131 200 -141 200 -4 0 -32 -35 -62
-77z"/>
<path d="M5420 1641 c-79 -24 -128 -73 -151 -149 -24 -83 17 -169 103 -213
l37 -19 -5 53 c-7 64 22 126 79 171 36 29 45 31 117 31 70 0 77 2 69 17 -17
32 -98 90 -145 104 -52 15 -67 16 -104 5z"/>
<path d="M6337 1636 c-53 -20 -111 -60 -136 -94 l-20 -29 49 5 c73 7 117 -5
160 -44 49 -44 74 -108 68 -168 l-5 -45 36 19 c92 47 128 125 101 222 -29 102
-157 169 -253 134z"/>
<path d="M5542 1433 c-41 -20 -62 -59 -62 -114 0 -38 5 -47 64 -103 51 -49 65
-69 70 -102 9 -53 -16 -117 -58 -147 -29 -21 -44 -22 -235 -27 l-203 -5 51
-101 c84 -164 215 -312 403 -455 81 -63 218 -149 306 -193 l53 -27 87 47 c319
171 561 399 679 639 l44 90 -203 5 c-216 5 -229 8 -265 59 -49 71 -35 144 43
216 73 68 83 101 53 163 -59 118 -206 83 -272 -65 -29 -67 -57 -191 -57 -258
l0 -45 45 0 c45 0 45 0 45 -35 l0 -35 -81 0 -81 0 4 -54 c6 -73 44 -127 111
-161 29 -14 68 -25 90 -25 l40 0 -5 -44 c-7 -59 -38 -100 -97 -128 -40 -18
-50 -29 -55 -54 -8 -41 -60 -119 -97 -145 l-29 -20 -29 20 c-37 26 -89 104
-97 145 -5 25 -15 36 -55 54 -59 28 -90 69 -97 128 l-5 44 40 0 c22 0 61 11
90 25 67 34 105 88 111 161 l4 54 -81 0 -81 0 0 35 c0 35 0 35 45 35 l45 0 0
49 c0 69 -26 185 -56 251 -55 120 -137 165 -222 123z"/>
<path d="M5890 717 c-21 -24 -59 -51 -95 -67 l-59 -28 34 -21 c19 -11 50 -21
68 -21 30 0 32 -2 32 -38 0 -45 39 -127 60 -127 21 0 60 82 60 127 0 36 2 38
33 38 17 0 48 10 67 21 l34 21 -59 28 c-35 15 -76 44 -97 68 -21 23 -39 42
-40 41 -2 0 -19 -19 -38 -42z"/>
<path d="M83 1725 c-49 -21 -75 -69 -70 -128 5 -59 30 -88 112 -129 78 -39 95
-55 95 -89 0 -52 -64 -65 -132 -27 l-40 23 -19 -24 c-11 -13 -19 -31 -17 -40
9 -46 164 -79 225 -48 52 28 83 73 83 123 0 36 -6 51 -35 83 -19 21 -59 49
-88 61 -64 27 -97 56 -97 86 0 46 58 56 138 23 31 -13 35 -12 48 6 25 34 13
58 -36 77 -55 21 -124 22 -167 3z"/>
<path d="M607 1713 c-21 -39 -207 -444 -207 -449 0 -2 20 -4 45 -4 43 0 46 2
61 40 l16 40 104 0 104 0 20 -40 c19 -38 23 -40 65 -40 38 0 43 2 38 18 -31
79 -211 456 -220 459 -7 3 -18 -8 -26 -24z m56 -216 c15 -34 27 -65 27 -69 0
-5 -29 -8 -64 -8 l-65 0 31 70 c17 39 34 70 37 70 3 0 18 -29 34 -63z"/>
<path d="M1247 1733 c-4 -3 -7 -111 -7 -240 l0 -233 45 0 45 0 0 146 c0 80 4
144 8 142 5 -1 68 -68 141 -148 72 -80 140 -145 149 -145 16 0 17 20 17 235
l0 235 -42 3 -42 3 -3 -146 -3 -146 -140 150 c-133 143 -153 160 -168 144z"/>
<path d="M2951 1726 c-115 -41 -185 -180 -151 -301 19 -67 87 -139 152 -161
59 -19 147 -15 195 10 106 54 156 177 122 300 -15 55 -89 131 -146 150 -54 19
-124 19 -172 2z m176 -104 c92 -65 80 -218 -20 -266 -139 -65 -280 81 -206
214 44 78 154 103 226 52z"/>
<path d="M4278 1718 c-68 -39 -86 -126 -40 -188 11 -14 52 -42 92 -62 99 -51
122 -85 82 -121 -25 -23 -69 -21 -115 3 -20 11 -41 20 -47 20 -9 0 -40 -51
-40 -65 0 -3 24 -17 53 -30 129 -61 260 -5 260 110 0 63 -24 92 -118 141 -103
55 -124 83 -88 119 18 19 67 17 121 -6 32 -13 35 -13 53 9 25 31 12 55 -41 76
-57 23 -127 20 -172 -6z"/>
<path d="M7910 1500 l0 -240 40 0 40 0 0 145 c0 80 4 145 8 145 4 0 68 -67
142 -149 74 -83 142 -149 150 -148 13 2 15 38 18 240 l2 237 -45 0 -45 0 0
-145 0 -145 -141 150 c-78 83 -148 150 -155 150 -11 0 -14 -45 -14 -240z"/>
<path d="M10384 1726 c-49 -21 -74 -61 -74 -117 0 -61 30 -99 114 -141 76 -38
96 -55 96 -84 0 -54 -61 -69 -130 -34 -22 11 -43 20 -48 20 -14 0 -35 -57 -27
-70 14 -23 90 -50 140 -50 118 0 197 99 151 188 -21 40 -54 66 -128 101 -71
33 -93 65 -71 100 14 22 67 25 105 7 40 -21 58 -20 74 2 24 32 16 49 -35 71
-56 24 -121 27 -167 7z"/>
<path d="M974 1717 c-2 -7 -3 -111 -2 -232 l3 -220 43 -3 42 -3 0 235 0 236
-40 0 c-24 0 -43 -5 -46 -13z"/>
<path d="M1774 1716 c-3 -8 -4 -25 -2 -38 3 -21 9 -23 61 -26 l57 -3 0 -194 0
-195 45 0 45 0 0 195 0 194 58 3 57 3 0 35 0 35 -158 3 c-130 2 -158 0 -163
-12z"/>
<path d="M2430 1495 l0 -236 138 3 c135 3 137 3 140 26 6 42 -13 52 -104 52
l-84 0 -2 193 -3 192 -42 3 -43 3 0 -236z"/>
<path d="M3420 1563 c0 -149 2 -171 21 -211 66 -136 278 -135 340 2 16 35 19
67 19 209 l0 167 -45 0 -45 0 0 -155 c0 -198 -16 -235 -100 -235 -84 0 -100
37 -100 235 l0 155 -45 0 -45 0 0 -167z"/>
<path d="M3974 1717 c-2 -7 -3 -111 -2 -232 l3 -220 43 -3 42 -3 0 235 0 236
-40 0 c-24 0 -43 -5 -46 -13z"/>
<path d="M7337 1723 c-4 -3 -7 -76 -7 -162 0 -130 3 -163 19 -196 46 -100 149
-141 248 -100 48 20 71 41 94 87 16 32 19 60 19 208 l0 171 -42 -3 -43 -3 -5
-168 -5 -169 -28 -24 c-52 -45 -134 -25 -156 38 -6 17 -11 98 -11 179 l0 149
-38 0 c-21 0 -42 -3 -45 -7z"/>
<path d="M8510 1495 l0 -235 45 0 45 0 0 235 0 235 -45 0 -45 0 0 -235z"/>
<path d="M8740 1718 c1 -27 209 -463 222 -466 9 -2 51 78 121 230 59 128 107
237 107 241 0 4 -21 7 -47 5 l-47 -3 -61 -138 c-34 -76 -65 -139 -71 -139 -5
0 -37 62 -71 138 l-62 139 -45 3 c-33 2 -46 -1 -46 -10z"/>
<path d="M9330 1495 l0 -235 151 0 150 0 -3 38 -3 37 -102 3 -103 3 0 59 0 59
88 3 87 3 0 35 0 35 -87 3 -88 3 0 54 0 54 103 3 102 3 3 38 3 37 -150 0 -151
0 0 -235z"/>
<path d="M9804 1717 c-2 -7 -3 -111 -2 -232 l3 -220 43 -3 42 -3 0 90 0 91 40
0 40 0 45 -90 45 -90 50 0 c28 0 50 2 50 3 0 2 -22 44 -48 93 l-49 89 33 23
c85 58 85 189 -1 242 -28 17 -49 20 -159 20 -93 0 -128 -3 -132 -13z m248 -84
c22 -20 23 -70 1 -95 -13 -14 -31 -18 -90 -18 l-73 0 0 65 0 65 72 0 c52 0 76
-4 90 -17z"/>
<path d="M10784 1717 c-2 -7 -3 -111 -2 -232 l3 -220 43 -3 42 -3 0 235 0 236
-40 0 c-24 0 -43 -5 -46 -13z"/>
<path d="M11022 1693 l3 -38 58 -3 57 -3 0 -195 0 -195 43 3 42 3 3 192 2 192
53 3 52 3 3 38 3 37 -161 0 -161 0 3 -37z"/>
<path d="M11450 1720 c0 -5 34 -58 75 -118 l74 -109 3 -114 3 -114 43 -3 42
-3 0 111 0 111 80 114 c44 63 80 119 80 125 0 5 -20 10 -45 10 -44 0 -45 -1
-95 -72 -28 -40 -55 -73 -60 -73 -5 0 -32 33 -60 73 -50 71 -51 72 -95 72 -25
0 -45 -4 -45 -10z"/>
<path d="M11858 1318 c7 -7 12 -22 12 -35 0 -13 5 -23 10 -23 6 0 10 11 10 25
0 14 5 25 10 25 6 0 10 5 10 10 0 6 -14 10 -32 10 -25 0 -29 -3 -20 -12z"/>
<path d="M11926 1300 c-7 -36 0 -52 13 -31 7 11 9 11 13 0 4 -12 7 -12 21 0
11 9 17 10 17 2 0 -6 4 -11 8 -11 11 0 3 58 -8 65 -5 3 -12 -5 -15 -17 l-7
-21 -18 23 -17 23 -7 -33z"/>
</g>
</svg>
